<svg xmlns="http://www.w3.org/2000/svg" viewBox="0 0 511.998 511.998" width="512" height="512" enable-background="new 0 0 511.998 511.998"><path d="M396.8 236.586h-93.175l-22.673-68.053c-1.775-5.325-6.929-9.523-12.424-8.747-5.623.128-10.496 3.874-12.023 9.276l-37.35 130.697-40.252-181.146c-1.229-5.478-5.871-9.523-11.477-9.975-5.572-.375-10.829 2.773-12.902 7.996l-48 119.953h-93.724c-7.074 0-12.8 5.726-12.8 12.8 0 7.074 5.726 12.8 12.8 12.8h102.4c5.222.008 9.95-3.174 11.878-8.047l35.823-89.523 42.197 189.952c1.271 5.726 6.272 9.847 12.126 10.027h.375c5.7 0 10.726-3.772 12.297-9.276l39.851-139.426 12.501 37.547c1.749 5.222 6.647 8.747 12.151 8.747h102.4c7.074 0 12.8-5.726 12.8-12.8.001-7.077-5.725-12.802-12.799-12.802zM467.012 64.374c-29.994-29.994-69.307-44.987-108.612-44.987-36.779 0-73.259 13.662-102.4 39.919-29.15-26.257-65.621-39.919-102.4-39.919-39.313 0-78.618 14.993-108.612 44.988-39.774 39.782-52.583 95.812-39.603 146.636h26.624c-13.653-43.972-3.678-93.773 31.078-128.529 24.175-24.175 56.32-37.487 90.513-37.487 31.206 0 60.399 11.563 83.695 31.889l18.705 17.485 18.714-17.493c23.296-20.318 52.489-31.889 83.686-31.889 34.193 0 66.33 13.312 90.513 37.487 49.911 49.903 49.903 131.115 0 181.018l-192.913 192.912-168.593-168.593h-36.207l204.8 204.8 211.012-211.012c59.981-59.989 59.981-157.235 0-217.225z" fill="#28abdb"/></svg>